<?xml version="1.0" encoding="UTF-8"?>
<svg id="Ebene_1" data-name="Ebene 1" xmlns="http://www.w3.org/2000/svg" xmlns:xlink="http://www.w3.org/1999/xlink" viewBox="0 0 82.72 24.02">
  <defs>
    <style>
      .cls-1 {
        fill: #fff;
      }

      .cls-2 {
        fill: url(#Unbenannter_Verlauf_2);
        fill-rule: evenodd;
      }
    </style>
    <linearGradient id="Unbenannter_Verlauf_2" data-name="Unbenannter Verlauf 2" x1="339.01" y1="622.48" x2="339.13" y2="622.35" gradientTransform="translate(142685.16 363600.53) rotate(-50) scale(551.05 -551.05)" gradientUnits="userSpaceOnUse">
      <stop offset="0" stop-color="#fa9600"/>
      <stop offset=".07" stop-color="#f99702"/>
      <stop offset=".13" stop-color="#f99a0c"/>
      <stop offset=".18" stop-color="#f9a11c"/>
      <stop offset=".22" stop-color="#f8a932"/>
      <stop offset=".26" stop-color="#f8b54f"/>
      <stop offset=".3" stop-color="#f7c373"/>
      <stop offset=".34" stop-color="#f6d49e"/>
      <stop offset=".38" stop-color="#f5e6ce"/>
      <stop offset=".4" stop-color="#f5f5f2"/>
      <stop offset=".42" stop-color="#f5e3c5"/>
      <stop offset=".45" stop-color="#f6d39c"/>
      <stop offset=".48" stop-color="#f7c477"/>
      <stop offset=".51" stop-color="#f8b856"/>
      <stop offset=".55" stop-color="#f8ad3b"/>
      <stop offset=".59" stop-color="#f9a425"/>
      <stop offset=".63" stop-color="#f99e14"/>
      <stop offset=".69" stop-color="#f99908"/>
      <stop offset=".77" stop-color="#f99601"/>
      <stop offset="1" stop-color="#fa9600"/>
    </linearGradient>
  </defs>
  <g>
    <path class="cls-1" d="M3.4,19.89c1.61,0,2.25-.97,2.25-2.59s-.64-2.41-2.25-2.41H.48v5h2.92ZM.48,20.35v3.43h-.48v-9.34h3.4c1.93,0,2.76.93,2.76,2.87s-.83,3.04-2.76,3.04H.48Z"/>
    <path class="cls-1" d="M10.94,14.89h-2.87v4.56h2.87c1.69,0,2.27-.96,2.27-2.35,0-1.55-.71-2.21-2.27-2.21M8.08,19.91v3.87h-.48v-9.34h3.35c1.85,0,2.77.8,2.77,2.67,0,1.44-.55,2.47-1.93,2.74l2.11,3.94h-.55l-2.08-3.87h-3.19Z"/>
    <path class="cls-1" d="M21.71,19.15c0-2.76-.56-4.38-3.07-4.38s-3.07,1.59-3.07,4.38.49,4.3,3.07,4.3,3.07-1.36,3.07-4.3M15.08,19.15c0-3.04.72-4.83,3.57-4.83s3.57,1.76,3.57,4.83c0,3.23-.71,4.75-3.57,4.75s-3.57-1.65-3.57-4.75"/>
    <path class="cls-1" d="M29.23,16.36s-1.88-.21-2.65-.21c-.99,0-1.45.36-1.45.96s.36.77,1.88,1.25c1.96.63,2.56,1.17,2.56,2.68,0,1.97-1.35,2.9-3.13,2.9-1.24,0-3.03-.41-3.03-.41l.19-1.43s1.79.24,2.73.24,1.41-.47,1.41-1.17c0-.56-.32-.81-1.63-1.19-2.04-.59-2.81-1.28-2.81-2.74,0-1.88,1.25-2.7,3.09-2.7,1.21,0,2.99.36,2.99.36l-.15,1.45Z"/>
    <path class="cls-1" d="M36.27,19.29c0-2.09-.37-3.15-1.87-3.15s-1.87,1.05-1.87,3.15.37,3.04,1.87,3.04,1.87-.95,1.87-3.04M30.64,19.29c0-3.07.91-4.75,3.76-4.75s3.76,1.68,3.76,4.75-.91,4.64-3.76,4.64-3.76-1.57-3.76-4.64"/>
  </g>
  <polygon class="cls-1" points="39.61 23.77 39.61 14.7 41.45 14.7 41.45 22.15 44.77 22.15 44.36 23.77 39.61 23.77"/>
  <path class="cls-1" d="M47.97,20.53h2.48l-.92-4.31h-.64l-.92,4.31ZM47.46,14.7h3.49l2.04,9.07h-1.84l-.36-1.64h-3.17l-.36,1.64h-1.84l2.04-9.07Z"/>
  <path class="cls-1" d="M57.72,16.28h-1.68v2.88h1.71c.92,0,1.29-.64,1.29-1.44,0-.87-.44-1.44-1.32-1.44M56.04,20.73v3.04h-1.84v-9.07h3.52c2.07,0,3.2.92,3.2,2.99,0,1.25-.51,2.09-1.33,2.62l1.29,3.47h-2.01l-1.05-3.04h-1.77Z"/>
  <polygon class="cls-1" points="61.12 14.35 67.91 14.35 67.91 14.81 64.77 14.81 64.77 23.9 64.29 23.9 64.29 14.81 61.12 14.81 61.12 14.35"/>
  <polygon class="cls-1" points="69.65 14.35 75.21 14.35 75.21 14.81 70.14 14.81 70.14 18.78 74.4 18.78 74.4 19.25 70.14 19.25 70.14 23.43 75.21 23.43 75.21 23.9 69.65 23.9 69.65 14.35"/>
  <path class="cls-1" d="M82.58,23.75c-.68.14-1.59.27-2.51.27-2.8,0-3.38-1.83-3.38-4.85s.49-4.94,3.38-4.94c.95,0,1.89.14,2.51.26l-.04.48c-.58-.12-1.66-.27-2.47-.27-2.56,0-2.87,1.76-2.87,4.47s.37,4.39,2.87,4.39c.86,0,1.77-.14,2.47-.27l.04.46Z"/>
  <path class="cls-2" d="M42.89,0C24.35,0,11.81,3.63.2,12.12h9.23C17.63,7.1,30.29,3.46,44.8,3.46s29.67,3.93,37.93,8.93l-.02-.62C74.97,5.2,60.56,0,42.89,0Z"/>
</svg>